# xmcd
#
# Track frame offsets:
#	150
#	13507
#	24993
#	40662
#
# Disc length: 805 seconds
#
# Revision: 1
# Processed by: cddbd v1.5.2PL0 Copyright (c) Steve Scherf et al.
# Submitted via: audiograbber 1.83.01
#
DISCID=1f032304
DTITLE=Wes Ball - Money In The Bank
DYEAR=1900
DGENRE=Country
TTITLE0=Stick To Your Guns
TTITLE1=Single Again
TTITLE2=Just Friends
TTITLE3=Let Yourself Fall
EXTD=
EXTT0=
EXTT1=
EXTT2=
EXTT3=
PLAYORDER=
